<svg xmlns="http://www.w3.org/2000/svg" xmlns:xlink="http://www.w3.org/1999/xlink" xml:space="preserve" version="1.1" style="shape-rendering:geometricPrecision;text-rendering:geometricPrecision;image-rendering:optimizeQuality;" viewBox="0 0 333.33 416.66249999999997" x="0px" y="0px" fill-rule="evenodd" clip-rule="evenodd"><defs><style type="text/css">
   
    .fil0 {fill:white;fill-rule:nonzero}
   
  </style></defs><g><path class="fil0" d="M325.86 220.28c-11.36,32.28 -32.52,59.94 -59.91,79.41 -26.83,19.06 -59.59,30.27 -94.96,30.27 -45.33,0 -86.37,-18.37 -116.07,-48.08 -29.71,-29.71 -48.08,-70.75 -48.08,-116.08 0,-40.85 14.94,-78.23 39.66,-106.97 25.08,-29.15 60.22,-49.41 100.03,-55.36 4.17,-0.61 8.06,2.28 8.67,6.46 0.39,2.64 -0.63,5.17 -2.49,6.82 -11.72,11.65 -21.17,25.59 -27.65,41.09 -6.27,15.02 -9.74,31.53 -9.74,48.87 0,35.04 14.2,66.75 37.16,89.71 22.96,22.96 54.68,37.16 89.71,37.16 13.23,0 25.96,-2.02 37.9,-5.75 12.37,-3.87 23.94,-9.59 34.38,-16.85 3.46,-2.41 8.23,-1.55 10.64,1.91 1.56,2.25 1.75,5.04 0.75,7.39zm-47.78 -45.96c-4.22,0 -7.65,-3.43 -7.65,-7.65 0,-4.23 3.43,-7.65 7.65,-7.65l35.32 0c4.23,0 7.65,3.43 7.65,7.65 0,4.23 -3.43,7.65 -7.65,7.65l-35.32 0zm-86.13 -25c-4.22,0 -7.65,-3.43 -7.65,-7.66 0,-4.22 3.43,-7.65 7.65,-7.65l35.32 0c4.23,0 7.66,3.43 7.66,7.65 0,4.23 -3.43,7.66 -7.66,7.66l-35.32 0zm91.57 -39.94c-4.22,0 -7.65,-3.43 -7.65,-7.66 0,-4.22 3.43,-7.65 7.65,-7.65l35.32 0c4.23,0 7.65,3.43 7.65,7.65 0,4.23 -3.43,7.66 -7.65,7.66l-35.32 0zm-144.55 0c-4.23,0 -7.66,-3.43 -7.66,-7.66 0,-4.22 3.43,-7.65 7.66,-7.65l70.64 0c4.23,0 7.66,3.43 7.66,7.65 0,4.23 -3.43,7.66 -7.66,7.66l-70.64 0zm58.96 -39.94c-4.23,0 -7.65,-3.43 -7.65,-7.65 0,-4.22 3.43,-7.65 7.65,-7.65l70.65 0c4.22,0 7.65,3.43 7.65,7.65 0,4.23 -3.43,7.65 -7.65,7.65l-70.65 0zm59.18 217.81c18.93,-13.44 34.57,-31.2 45.51,-51.83 -5.79,2.72 -11.79,5.07 -17.98,7 -13.43,4.2 -27.69,6.46 -42.44,6.46 -39.26,0 -74.8,-15.91 -100.54,-41.65 -25.73,-25.73 -41.64,-61.27 -41.64,-100.53 0,-19.38 3.89,-37.87 10.94,-54.74 4.22,-10.1 9.58,-19.61 15.91,-28.38 -27.02,8.37 -50.75,24.24 -68.75,45.16 -22.41,26.05 -35.96,59.96 -35.96,97.04 0,41.11 16.66,78.32 43.6,105.26 26.93,26.94 64.15,43.6 105.25,43.6 32.11,0 61.83,-10.15 86.11,-27.4z"/></g></svg>